<mxfile host="Electron" agent="Mozilla/5.0 (Windows NT 10.0; Win64; x64) AppleWebKit/537.36 (KHTML, like Gecko) draw.io/24.7.17 Chrome/128.0.6613.36 Electron/32.0.1 Safari/537.36" version="24.7.17">
  <diagram name="第 1 页" id="BCCBoekBYI5Rz_YFW93R">
    <mxGraphModel dx="1302" dy="758" grid="0" gridSize="10" guides="1" tooltips="1" connect="1" arrows="1" fold="1" page="1" pageScale="1" pageWidth="1169" pageHeight="827" math="0" shadow="0">
      <root>
        <mxCell id="0" />
        <mxCell id="1" parent="0" />
        <mxCell id="HlgGpDfsv6TwYngPDT2Y-6" value="" style="rounded=1;whiteSpace=wrap;html=1;fillColor=none;" vertex="1" parent="1">
          <mxGeometry x="349" y="299" width="472" height="105" as="geometry" />
        </mxCell>
        <mxCell id="HlgGpDfsv6TwYngPDT2Y-1" value="" style="rounded=1;whiteSpace=wrap;html=1;fillColor=none;" vertex="1" parent="1">
          <mxGeometry x="375" y="330" width="198" height="60" as="geometry" />
        </mxCell>
        <mxCell id="HlgGpDfsv6TwYngPDT2Y-2" value="Task" style="text;html=1;align=center;verticalAlign=middle;whiteSpace=wrap;rounded=0;" vertex="1" parent="1">
          <mxGeometry x="495" y="345" width="60" height="30" as="geometry" />
        </mxCell>
        <mxCell id="HlgGpDfsv6TwYngPDT2Y-3" value="git-clone" style="rounded=1;whiteSpace=wrap;html=1;dashed=1;fillColor=none;" vertex="1" parent="1">
          <mxGeometry x="404" y="339.5" width="62" height="41" as="geometry" />
        </mxCell>
        <mxCell id="HlgGpDfsv6TwYngPDT2Y-5" style="edgeStyle=orthogonalEdgeStyle;rounded=0;orthogonalLoop=1;jettySize=auto;html=1;entryX=0.5;entryY=1;entryDx=0;entryDy=0;" edge="1" parent="1" source="HlgGpDfsv6TwYngPDT2Y-4" target="HlgGpDfsv6TwYngPDT2Y-6">
          <mxGeometry relative="1" as="geometry">
            <mxPoint x="472" y="404" as="targetPoint" />
          </mxGeometry>
        </mxCell>
        <mxCell id="HlgGpDfsv6TwYngPDT2Y-4" value="PipelineRun" style="rounded=1;whiteSpace=wrap;html=1;fillColor=none;" vertex="1" parent="1">
          <mxGeometry x="525" y="467" width="120" height="60" as="geometry" />
        </mxCell>
        <mxCell id="HlgGpDfsv6TwYngPDT2Y-7" value="Pipeline" style="text;html=1;align=center;verticalAlign=middle;whiteSpace=wrap;rounded=0;" vertex="1" parent="1">
          <mxGeometry x="360" y="300" width="60" height="30" as="geometry" />
        </mxCell>
        <mxCell id="HlgGpDfsv6TwYngPDT2Y-8" value="" style="rounded=1;whiteSpace=wrap;html=1;fillColor=none;" vertex="1" parent="1">
          <mxGeometry x="598" y="330" width="198" height="60" as="geometry" />
        </mxCell>
        <mxCell id="HlgGpDfsv6TwYngPDT2Y-9" value="Task" style="text;html=1;align=center;verticalAlign=middle;whiteSpace=wrap;rounded=0;" vertex="1" parent="1">
          <mxGeometry x="718" y="345" width="60" height="30" as="geometry" />
        </mxCell>
        <mxCell id="HlgGpDfsv6TwYngPDT2Y-10" value="kaniko" style="rounded=1;whiteSpace=wrap;html=1;dashed=1;fillColor=none;" vertex="1" parent="1">
          <mxGeometry x="627" y="339.5" width="62" height="41" as="geometry" />
        </mxCell>
      </root>
    </mxGraphModel>
  </diagram>
</mxfile>
